PathFileType	4	(X/Y/Z)	output.trc
DataRate	CameraRate	NumFrames	NumMarkers	Units	OrigDataRate	OrigDataStartFrame	OrigNumFrames
100	100	18	23	m	100	1972	5257
Frame#	Time	C7			T8			EL			EM			US			RS			AA			Fore_Clus_1			Fore_Clus_2			Fore_Clus_3			Fore_Clus_4			Hum_Clus_1			Hum_Clus_2			Hum_Clus_3			Hum_Clus_4			Thor_Clus_1			Thor_Clus_2			Thor_Clus_3			Thor_Clus_4			IJ			PX			GH			Thor_Clus_5		
		X1	Y1	Z1	X2	Y2	Z2	X3	Y3	Z3	X4	Y4	Z4	X5	Y5	Z5	X6	Y6	Z6	X7	Y7	Z7	X8	Y8	Z8	X9	Y9	Z9	X10	Y10	Z10	X11	Y11	Z11	X12	Y12	Z12	X13	Y13	Z13	X14	Y14	Z14	X15	Y15	Z15	X16	Y16	Z16	X17	Y17	Z17	X18	Y18	Z18	X19	Y19	Z19	X20	Y20	Z20	X21	Y21	Z21	X22	Y22	Z22	X23	Y23	Z23
1971	19.710000	-0.003992	1.645698	-0.060594	-0.019179	1.403764	-0.124380	-0.212148	1.226195	0.171200	-0.167101	1.207406	0.120486	-0.008865	1.186249	0.387320	0.038065	1.181164	0.350159	-0.145803	1.538387	0.115244	-0.028533	1.228195	0.351874	0.011317	1.224040	0.394512	0.028440	1.219194	0.373352	0.004414	1.226727	0.321192	-0.176736	1.349808	0.202986	-0.220269	1.356434	0.162093	-0.214424	1.418959	0.149891	-0.165686	1.420277	0.182724	0.151137	1.538249	0.053033	0.120388	1.484044	0.110411	0.117187	1.534403	0.082298	0.169069	1.489389	0.067738	0.077856	1.564966	0.025769	0.117863	1.363196	0.056564	-0.125231	1.517555	0.087633	0.113332	1.506044	0.103924
1972	19.720000	-0.004035	1.645680	-0.060622	-0.019208	1.403730	-0.124348	-0.212131	1.226200	0.171289	-0.167106	1.207397	0.120559	-0.008732	1.186269	0.387271	0.038183	1.181178	0.350091	-0.145828	1.538402	0.115251	-0.028394	1.228280	0.351804	0.011591	1.224223	0.394490	0.028603	1.219261	0.373240	0.004541	1.226790	0.321109	-0.176735	1.349854	0.203029	-0.220292	1.356464	0.162148	-0.214434	1.418970	0.149931	-0.165672	1.420296	0.182756	0.151090	1.538244	0.053009	0.120364	1.484065	0.110409	0.117155	1.534415	0.082289	0.169041	1.489407	0.067730	0.077824	1.564975	0.025756	0.117847	1.363216	0.056598	-0.125262	1.517537	0.087593	0.113306	1.506056	0.103910
1973	19.730000	-0.004070	1.645661	-0.060655	-0.019228	1.403694	-0.124318	-0.212112	1.226213	0.171383	-0.167122	1.207395	0.120628	-0.008596	1.186290	0.387213	0.038303	1.181189	0.350014	-0.145846	1.538417	0.115252	-0.028233	1.228332	0.351754	0.011679	1.224212	0.394356	0.028779	1.219312	0.373163	0.004672	1.226849	0.321033	-0.176665	1.349902	0.203091	-0.220283	1.356494	0.162246	-0.214430	1.419007	0.150009	-0.165627	1.420338	0.182764	0.151071	1.538271	0.052990	0.120341	1.484091	0.110402	0.117134	1.534445	0.082259	0.169042	1.489426	0.067719	0.077799	1.564984	0.025740	0.117839	1.363236	0.056631	-0.125297	1.517527	0.087552	0.113288	1.506079	0.103890
1974	19.740000	-0.004100	1.645649	-0.060682	-0.019251	1.403666	-0.124289	-0.212090	1.226231	0.171477	-0.167144	1.207401	0.120688	-0.008465	1.186315	0.387154	0.038418	1.181197	0.349937	-0.145858	1.538438	0.115261	-0.028072	1.228358	0.351734	0.011893	1.224253	0.394363	0.028931	1.219336	0.373105	0.004783	1.226920	0.320998	-0.176567	1.349955	0.203161	-0.220252	1.356545	0.162357	-0.214389	1.419049	0.150103	-0.165539	1.420388	0.182804	0.151055	1.538284	0.052979	0.120317	1.484126	0.110395	0.117102	1.534467	0.082243	0.169015	1.489453	0.067705	0.077780	1.564996	0.025725	0.117832	1.363257	0.056659	-0.125330	1.517524	0.087512	0.113270	1.506107	0.103878
1975	19.750000	-0.004120	1.645639	-0.060711	-0.019264	1.403641	-0.124263	-0.212059	1.226253	0.171567	-0.167164	1.207413	0.120737	-0.008338	1.186342	0.387093	0.038530	1.181204	0.349860	-0.145862	1.538461	0.115264	-0.027975	1.228338	0.351725	0.011979	1.224198	0.394315	0.029094	1.219357	0.373114	0.004904	1.226948	0.320986	-0.176432	1.350009	0.203217	-0.220189	1.356604	0.162490	-0.214343	1.419108	0.150207	-0.165438	1.420445	0.182829	0.151038	1.538309	0.052960	0.120305	1.484171	0.110377	0.117094	1.534502	0.082225	0.168999	1.489485	0.067706	0.077768	1.565008	0.025709	0.117832	1.363278	0.056686	-0.125365	1.517527	0.087471	0.113245	1.506144	0.103858
1976	19.760000	-0.004131	1.645630	-0.060741	-0.019268	1.403619	-0.124241	-0.212017	1.226276	0.171647	-0.167176	1.207428	0.120772	-0.008217	1.186372	0.387034	0.038638	1.181212	0.349788	-0.145860	1.538484	0.115263	-0.027744	1.228401	0.351838	0.012080	1.224151	0.394327	0.029206	1.219360	0.373135	0.005022	1.226958	0.321017	-0.176257	1.350041	0.203249	-0.220109	1.356649	0.162609	-0.214271	1.419149	0.150327	-0.165301	1.420502	0.182858	0.151031	1.538359	0.052933	0.120302	1.484219	0.110382	0.117085	1.534537	0.082215	0.168990	1.489526	0.067707	0.077765	1.565022	0.025692	0.117838	1.363299	0.056709	-0.125399	1.517538	0.087429	0.113256	1.506206	0.103856
1977	19.770000	-0.004135	1.645628	-0.060768	-0.019270	1.403604	-0.124222	-0.211963	1.226299	0.171715	-0.167177	1.207447	0.120793	-0.008106	1.186407	0.386980	0.038739	1.181221	0.349725	-0.145853	1.538511	0.115264	-0.027698	1.228673	0.351949	0.012230	1.224153	0.394329	0.029329	1.219351	0.373126	0.005134	1.226949	0.321003	-0.176088	1.350085	0.203289	-0.220019	1.356689	0.162738	-0.214209	1.419184	0.150456	-0.165149	1.420519	0.182880	0.151045	1.538395	0.052928	0.120304	1.484273	0.110387	0.117090	1.534579	0.082198	0.168990	1.489563	0.067697	0.077767	1.565037	0.025676	0.117846	1.363321	0.056729	-0.125430	1.517554	0.087388	0.113254	1.506248	0.103847
1978	19.780000	-0.004127	1.645623	-0.060801	-0.019255	1.403586	-0.124209	-0.211894	1.226318	0.171768	-0.167160	1.207467	0.120799	-0.008001	1.186443	0.386929	0.038838	1.181235	0.349669	-0.145841	1.538535	0.115252	-0.027545	1.228673	0.351940	0.012348	1.224145	0.394291	0.029452	1.219343	0.373100	0.005286	1.226941	0.320993	-0.175926	1.350112	0.203304	-0.219908	1.356703	0.162865	-0.214133	1.419208	0.150571	-0.165025	1.420530	0.182922	0.151062	1.538438	0.052907	0.120324	1.484310	0.110391	0.117095	1.534620	0.082184	0.168988	1.489596	0.067698	0.077778	1.565051	0.025658	0.117863	1.363343	0.056750	-0.125461	1.517575	0.087346	0.113287	1.506289	0.103858
1979	19.790000	-0.004114	1.645623	-0.060830	-0.019238	1.403575	-0.124196	-0.211812	1.226333	0.171803	-0.167125	1.207488	0.120791	-0.007904	1.186484	0.386886	0.038931	1.181254	0.349625	-0.145824	1.538563	0.115243	-0.027394	1.228717	0.351888	0.012518	1.224206	0.394272	0.029578	1.219364	0.373054	0.005382	1.226958	0.320953	-0.175664	1.350276	0.203105	-0.219793	1.356708	0.162942	-0.214065	1.419205	0.150641	-0.164906	1.420529	0.182917	0.151075	1.538465	0.052902	0.120344	1.484376	0.110400	0.117112	1.534650	0.082184	0.169018	1.489638	0.067708	0.077793	1.565067	0.025642	0.117883	1.363365	0.056768	-0.125487	1.517601	0.087304	0.113271	1.506337	0.103848
1980	19.800000	-0.004093	1.645621	-0.060863	-0.019209	1.403562	-0.124186	-0.211717	1.226343	0.171819	-0.167069	1.207508	0.120769	-0.007812	1.186526	0.386848	0.039023	1.181278	0.349589	-0.145805	1.538589	0.115225	-0.027260	1.228761	0.351854	0.012607	1.224235	0.394222	0.029675	1.219384	0.373038	0.005475	1.226993	0.320907	-0.175577	1.350233	0.203137	-0.219707	1.356683	0.162962	-0.214016	1.419184	0.150647	-0.164829	1.420519	0.182918	0.151110	1.538491	0.052905	0.120367	1.484418	0.110418	0.117147	1.534694	0.082171	0.169037	1.489670	0.067721	0.077814	1.565083	0.025626	0.117908	1.363387	0.056788	-0.125510	1.517629	0.087262	0.113289	1.506383	0.103865
1981	19.810000	-0.004065	1.645618	-0.060897	-0.019171	1.403546	-0.124177	-0.211611	1.226348	0.171816	-0.166992	1.207525	0.120736	-0.007725	1.186568	0.386815	0.039113	1.181309	0.349562	-0.145783	1.538613	0.115203	-0.027162	1.228804	0.351814	0.012937	1.224492	0.394262	0.029769	1.219433	0.372993	0.005601	1.227033	0.320883	-0.175517	1.350214	0.203110	-0.219658	1.356660	0.162944	-0.213980	1.419153	0.150628	-0.164788	1.420518	0.182893	0.151146	1.538515	0.052882	0.120403	1.484465	0.110421	0.117180	1.534742	0.082165	0.169067	1.489704	0.067716	0.077840	1.565098	0.025610	0.117938	1.363409	0.056811	-0.125528	1.517658	0.087218	0.113327	1.506411	0.103864
1982	19.820000	-0.004036	1.645616	-0.060929	-0.019133	1.403533	-0.124166	-0.211499	1.226347	0.171795	-0.166898	1.207540	0.120694	-0.007642	1.186610	0.386788	0.039201	1.181344	0.349542	-0.145760	1.538640	0.115184	-0.027051	1.228821	0.351783	0.013051	1.224528	0.394214	0.029858	1.219443	0.372956	0.005667	1.227065	0.320852	-0.175485	1.350205	0.203074	-0.219618	1.356616	0.162891	-0.213951	1.419118	0.150572	-0.164770	1.420493	0.182859	0.151163	1.538533	0.052879	0.120437	1.484492	0.110423	0.117220	1.534755	0.082144	0.169102	1.489718	0.067715	0.077867	1.565114	0.025597	0.117968	1.363431	0.056836	-0.125540	1.517687	0.087174	0.113343	1.506442	0.103872
1983	19.830000	-0.004000	1.645608	-0.060966	-0.019082	1.403512	-0.124155	-0.211381	1.226340	0.171759	-0.166787	1.207552	0.120645	-0.007560	1.186645	0.386762	0.039290	1.181383	0.349524	-0.145736	1.538663	0.115156	-0.026911	1.228789	0.351712	0.013014	1.224400	0.394070	0.029986	1.219482	0.372916	0.005789	1.227099	0.320753	-0.175470	1.350203	0.203013	-0.219588	1.356602	0.162818	-0.213933	1.419102	0.150485	-0.164773	1.420498	0.182802	0.151216	1.538566	0.052875	0.120473	1.484515	0.110423	0.117247	1.534783	0.082153	0.169134	1.489750	0.067718	0.077898	1.565127	0.025584	0.118005	1.363453	0.056868	-0.125549	1.517715	0.087129	0.113371	1.506453	0.103858
1984	19.840000	-0.003965	1.645602	-0.060998	-0.019034	1.403492	-0.124139	-0.211263	1.226330	0.171708	-0.166665	1.207561	0.120591	-0.007481	1.186675	0.386739	0.039377	1.181422	0.349510	-0.145711	1.538688	0.115134	-0.026713	1.228684	0.351582	0.013169	1.224449	0.393993	0.030123	1.219504	0.372844	0.005963	1.227135	0.320678	-0.175471	1.350206	0.202964	-0.219563	1.356592	0.162728	-0.213903	1.419104	0.150396	-0.164790	1.420503	0.182748	0.151236	1.538559	0.052881	0.120503	1.484530	0.110438	0.117286	1.534806	0.082151	0.169168	1.489761	0.067728	0.077929	1.565141	0.025575	0.118040	1.363475	0.056904	-0.125550	1.517741	0.087084	0.113396	1.506484	0.103874
1985	19.850000	-0.003928	1.645592	-0.061032	-0.018979	1.403467	-0.124119	-0.211147	1.226315	0.171648	-0.166536	1.207566	0.120535	-0.007403	1.186693	0.386715	0.039463	1.181461	0.349494	-0.145687	1.538711	0.115110	-0.026634	1.228746	0.351536	0.013269	1.224492	0.393941	0.030214	1.219538	0.372799	0.006049	1.227175	0.320596	-0.175447	1.350227	0.202865	-0.219531	1.356581	0.162626	-0.213887	1.419094	0.150283	-0.164790	1.420523	0.182668	0.151280	1.538584	0.052895	0.120533	1.484551	0.110455	0.117315	1.534811	0.082163	0.169197	1.489780	0.067739	0.077961	1.565154	0.025567	0.118077	1.363496	0.056946	-0.125547	1.517764	0.087038	0.113418	1.506494	0.103880
1986	19.860000	-0.003890	1.645578	-0.061066	-0.018922	1.403437	-0.124096	-0.211036	1.226298	0.171580	-0.166404	1.207568	0.120478	-0.007327	1.186699	0.386687	0.039548	1.181496	0.349473	-0.145664	1.538732	0.115086	-0.026622	1.228843	0.351538	0.013312	1.224480	0.393920	0.030283	1.219566	0.372804	0.006147	1.227237	0.320577	-0.175563	1.350081	0.203008	-0.219513	1.356552	0.162528	-0.213879	1.419055	0.150184	-0.164812	1.420527	0.182620	0.151302	1.538598	0.052907	0.120557	1.484566	0.110469	0.117345	1.534823	0.082179	0.169229	1.489787	0.067766	0.077993	1.565166	0.025562	0.118117	1.363518	0.056994	-0.125539	1.517783	0.086992	0.113437	1.506493	0.103889
1987	19.870000	-0.003854	1.645566	-0.061094	-0.018868	1.403409	-0.124068	-0.210934	1.226280	0.171508	-0.166277	1.207567	0.120422	-0.007254	1.186690	0.386658	0.039628	1.181522	0.349448	-0.145640	1.538756	0.115069	-0.026625	1.228872	0.351563	0.013294	1.224442	0.393887	0.030285	1.219580	0.372804	0.006177	1.227293	0.320587	-0.175574	1.350036	0.202990	-0.219469	1.356521	0.162452	-0.213867	1.419032	0.150108	-0.164810	1.420519	0.182532	0.151350	1.538614	0.052907	0.120591	1.484578	0.110478	0.117372	1.534848	0.082176	0.169265	1.489802	0.067772	0.078024	1.565178	0.025562	0.118153	1.363539	0.057046	-0.125524	1.517799	0.086948	0.113454	1.506510	0.103893
1988	19.880000	-0.003814	1.645548	-0.061125	-0.018806	1.403373	-0.124038	-0.210840	1.226260	0.171436	-0.166155	1.207564	0.120368	-0.007183	1.186663	0.386621	0.039707	1.181539	0.349413	-0.145618	1.538775	0.115047	-0.026622	1.228838	0.351558	0.013287	1.224396	0.393878	0.030297	1.219594	0.372831	0.006207	1.227329	0.320607	-0.175512	1.350047	0.202895	-0.219415	1.356495	0.162362	-0.213838	1.419006	0.150036	-0.164805	1.420524	0.182474	0.151351	1.538603	0.052929	0.120610	1.484607	0.110503	0.117402	1.534848	0.082202	0.169288	1.489810	0.067808	0.078057	1.565187	0.025562	0.118194	1.363559	0.057105	-0.125508	1.517810	0.086904	0.113488	1.506534	0.103920
